HIERARCHY
ROOT Hips
{
    OFFSET 0.000000 0.000000 0.000000
    CHANNELS 6 Xposition Yposition Zposition Zrotation Xrotation Yrotation
    JOINT Spine
    {
        OFFSET -0.000000 7.897928 0.000000
        CHANNELS 3 Zrotation Xrotation Yrotation
        JOINT Spine1
        {
            OFFSET -0.000000 22.881742 0.000000
            CHANNELS 3 Zrotation Xrotation Yrotation
            JOINT Neck
            {
                OFFSET -0.000000 22.787771 2.071616
                CHANNELS 3 Zrotation Xrotation Yrotation
                JOINT Head
                {
                    OFFSET -0.000000 13.484266 -1.926324
                    CHANNELS 3 Zrotation Xrotation Yrotation
                    End Site
                    {
                        OFFSET -0.000000 24.079046 0.000000
                    }
                }
            }
            JOINT LeftShoulder
            {
                OFFSET 3.854963 21.096247 -0.110468
                CHANNELS 3 Zrotation Xrotation Yrotation
                JOINT LeftArm
                {
                    OFFSET 10.572188 0.000000 0.000000
                    CHANNELS 3 Zrotation Xrotation Yrotation
                    JOINT LeftForeArm
                    {
                        OFFSET 34.932854 0.000000 0.000000
                        CHANNELS 3 Zrotation Xrotation Yrotation
                        JOINT LeftHand
                        {
                            OFFSET 23.279285 0.000000 0.000000
                            CHANNELS 3 Zrotation Xrotation Yrotation
                            End Site
                            {
                                OFFSET 14.447429 0.000000 0.000000
                            }
                        }
                    }
                }
            }
            JOINT RightShoulder
            {
                OFFSET -3.825334 21.096247 -0.110468
                CHANNELS 3 Zrotation Xrotation Yrotation
                JOINT RightArm
                {
                    OFFSET -10.572188 0.000000 0.000000
                    CHANNELS 3 Zrotation Xrotation Yrotation
                    JOINT RightForeArm
                    {
                        OFFSET -34.932854 0.000000 0.000000
                        CHANNELS 3 Zrotation Xrotation Yrotation
                        JOINT RightHand
                        {
                            OFFSET -23.279285 0.000000 0.000000
                            CHANNELS 3 Zrotation Xrotation Yrotation
                            End Site
                            {
                                OFFSET -14.447429 0.000000 0.000000
                            }
                        }
                    }
                }
            }
        }
    }
    JOINT LeftUpLeg
    {
        OFFSET 9.631618 0.000000 0.000000
        CHANNELS 3 Zrotation Xrotation Yrotation
        JOINT LeftLeg
        {
            OFFSET -0.000000 -35.385456 0.000000
            CHANNELS 3 Zrotation Xrotation Yrotation
            JOINT LeftFoot
            {
                OFFSET -0.000000 -43.284000 0.000000
                CHANNELS 3 Zrotation Xrotation Yrotation
                JOINT LeftToeBase
                {
                    OFFSET -0.000000 -6.260552 14.447429
                    CHANNELS 3 Zrotation Xrotation Yrotation
                    End Site
                    {
                        OFFSET -0.000000 0.000000 3.852648
                    }
                }
            }
        }
    }
    JOINT RightUpLeg
    {
        OFFSET -9.631618 0.000000 0.000000
        CHANNELS 3 Zrotation Xrotation Yrotation
        JOINT RightLeg
        {
            OFFSET -0.000000 -35.385456 0.000000
            CHANNELS 3 Zrotation Xrotation Yrotation
            JOINT RightFoot
            {
                OFFSET -0.000000 -43.284000 0.000000
                CHANNELS 3 Zrotation Xrotation Yrotation
                JOINT RightToeBase
                {
                    OFFSET -0.000000 -6.260552 14.447429
                    CHANNELS 3 Zrotation Xrotation Yrotation
                    End Site
                    {
                        OFFSET -0.000000 0.000000 3.852648
                    }
                }
            }
        }
    }
}
MOTION
Frames:    13
Frame Time:    0.008333
-160.104584    89.212250    40.758167    -1.253276    -1.381199    87.930115    2.229145    -3.230438    -0.868626    -2.067083    -3.392549    -0.992694    -1.571625    19.008324    -9.328562    6.736648    0.277573    -8.814748    18.610975    3.061118    1.934772    -19.207672    7.819603    -5.451068    3.313348    -7.177123    -0.147910    -6.981586    -7.032815    -2.313513    -13.047688    0.228308    9.934058    15.326257    -0.926372    -1.443360    -0.492733    -1.938165    -0.391388    1.885172    -1.849987    5.461310    4.080976    4.313640    3.518206    -4.281783    4.627446    -3.436051    -0.593808    -7.663200    14.964835    0.000000    0.000000    0.000000    -2.257536    -0.529885    3.263253    3.898857    8.062317    2.272849    0.081062    -5.841515    -8.246838    0.000000    0.000000    0.000000    
-160.107071    89.212166    40.755291    -1.262542    -1.387594    87.930542    2.248206    -3.234065    -0.884574    -2.064491    -3.369197    -1.008852    -1.633115    18.973030    -9.278346    6.753387    0.259695    -8.760089    18.591219    3.054694    1.971908    -19.180031    7.866594    -5.480072    3.280909    -7.223435    -0.147049    -6.953926    -7.085663    -2.215753    -13.072011    0.216336    9.950041    15.344144    -0.913119    -1.431040    -0.517961    -1.909740    -0.344807    1.888836    -1.821166    5.467424    4.086138    4.297197    3.530036    -4.282321    4.637751    -3.448396    -0.590547    -7.672866    14.971164    0.000000    0.000000    0.000000    -2.252303    -0.546482    3.269111    3.900084    8.068862    2.239292    0.062719    -5.833740    -8.221783    0.000000    0.000000    0.000000    
-160.111374    89.211235    40.751122    -1.269774    -1.386897    87.938576    2.240987    -3.206765    -0.890564    -2.045742    -3.402504    -1.014089    -1.613689    18.978590    -9.256310    6.695754    0.207362    -8.741680    18.590651    3.064089    1.957435    -19.186144    7.871401    -5.488955    3.405548    -7.023227    -0.047987    -7.630120    -6.859754    -2.447786    -13.059001    0.237768    9.940022    15.333325    -0.877644    -1.418646    -0.560955    -1.895481    -0.300604    1.880576    -1.807127    5.470840    4.081526    4.282036    3.552187    -4.271934    4.647211    -3.488151    -0.608943    -7.678027    14.972584    0.000000    0.000000    0.000000    -2.250828    -0.561584    3.263980    3.897038    8.087367    2.357753    0.055367    -5.854624    -8.353124    0.000000    0.000000    0.000000    
-160.117264    89.207443    40.745632    -1.307543    -1.389273    87.944939    2.251428    -3.229142    -0.905710    -2.035069    -3.412173    -1.029884    -1.637630    18.989080    -9.197803    6.698369    0.150842    -8.677820    18.549393    3.023537    2.015188    -19.137068    7.917626    -5.555386    3.376303    -6.994080    -0.010011    -7.614985    -6.836319    -2.383066    -13.067353    0.237174    9.963182    15.340508    -0.837568    -1.421135    -0.599456    -1.879544    -0.241197    1.897544    -1.789938    5.486955    4.083973    4.243413    3.537419    -4.276445    4.638753    -3.500427    -0.567671    -7.675847    14.992803    0.000000    0.000000    0.000000    -2.254989    -0.606307    3.263315    3.901111    8.094363    2.343825    0.041638    -5.874138    -8.337305    0.000000    0.000000    0.000000    
-160.120407    89.207176    40.741596    -1.318661    -1.389128    87.942032    2.278025    -3.221809    -0.910092    -2.080622    -3.417372    -1.036269    -1.618126    18.916452    -9.204235    6.647042    0.233958    -8.694851    18.588787    3.016606    2.022197    -19.157528    7.920731    -5.566741    3.397377    -6.976275    -0.011737    -7.674459    -6.820011    -2.341312    -13.016765    0.237506    9.964625    15.323785    -0.780750    -1.419578    -0.680185    -1.807009    -0.195218    2.125073    -1.706017    5.507295    4.078166    4.231464    3.565827    -4.269797    4.637327    -3.502244    -0.589971    -7.674615    14.977438    0.000000    0.000000    0.000000    -2.253534    -0.620181    3.251718    3.895825    8.086576    2.276337    0.080934    -5.850112    -8.262810    0.000000    0.000000    0.000000    
-160.123611    89.207443    40.737827    -1.328926    -1.384633    87.952042    2.267667    -3.232483    -0.928629    -2.044940    -3.379428    -1.053015    -1.642778    18.822538    -9.176889    6.602844    0.290749    -8.674867    18.587311    3.019931    2.008793    -19.193140    7.918932    -5.518883    3.416932    -6.989125    -0.058507    -7.703806    -6.833200    -2.306470    -13.067198    0.226286    9.943506    15.345756    -0.764035    -1.369277    -0.703104    -1.793635    -0.149745    2.137164    -1.691730    5.510339    4.073884    4.212838    3.568466    -4.271405    4.644816    -3.518972    -0.576496    -7.672333    14.979842    0.000000    0.000000    0.000000    -2.196126    -0.666401    3.078628    3.762402    8.157886    2.345204    0.160945    -5.871777    -8.167507    0.000000    0.000000    0.000000    
-160.127426    89.207306    40.733875    -1.335777    -1.383600    87.948387    2.281022    -3.214177    -0.944271    -2.052412    -3.398544    -1.069233    -1.686038    18.802544    -9.121570    6.648625    0.289367    -8.611444    18.576477    3.018221    2.047245    -19.193485    7.922258    -5.532204    3.434650    -6.967796    -0.076106    -7.714622    -6.810481    -2.315917    -13.055673    0.225443    9.967088    15.335262    -0.764474    -1.359129    -0.679452    -1.853880    -0.067263    1.878717    -1.763978    5.504427    4.069877    4.209119    3.575305    -4.271681    4.639565    -3.517002    -0.533139    -7.647234    14.965195    0.000000    0.000000    0.000000    -2.193990    -0.672862    3.071913    3.753812    8.158193    2.375106    0.100706    -5.869963    -8.182284    0.000000    0.000000    0.000000    
-160.130737    89.205643    40.729298    -1.347288    -1.378207    87.948593    2.272012    -3.226911    -0.946839    -2.040016    -3.364937    -1.070735    -1.658905    18.711933    -9.128011    6.566545    0.359176    -8.631417    18.608538    2.998459    2.045313    -19.231434    7.929956    -5.535294    3.431280    -7.006632    -0.092575    -7.659472    -6.850423    -2.308757    -13.056159    0.203581    9.932811    15.329306    -0.719189    -1.323198    -0.712502    -1.876857    -0.014981    2.002037    -1.781463    5.464996    4.059391    4.194577    3.596967    -4.264339    4.643332    -3.567958    -0.540285    -7.655726    14.997384    0.000000    0.000000    0.000000    -2.196382    -0.677095    3.038418    3.731970    8.137117    2.332575    0.166040    -5.867648    -8.099556    0.000000    0.000000    0.000000    
-160.133240    89.204430    40.727119    -1.354711    -1.384391    87.951805    2.282856    -3.223527    -0.962641    -2.024912    -3.362060    -1.086286    -1.686581    18.609236    -9.111846    6.532483    0.481811    -8.625175    18.587269    2.988586    2.074979    -19.230734    7.915977    -5.543849    3.448107    -7.018688    -0.101299    -7.692698    -6.858725    -2.351099    -13.073030    0.202758    9.930727    15.332808    -0.690338    -1.283859    -0.741077    -1.940825    0.022347    1.982051    -1.845386    5.509334    4.065243    4.191332    3.599193    -4.267768    4.631631    -3.563659    -0.526449    -7.656161    14.989071    0.000000    0.000000    0.000000    -2.194976    -0.677747    3.079441    3.747987    8.122963    2.292708    0.147754    -5.866780    -8.114601    0.000000    0.000000    0.000000    
-160.134766    89.204773    40.723686    -1.365235    -1.382110    87.945198    2.277872    -3.246694    -0.970435    -2.000072    -3.320758    -1.093017    -1.712916    18.547163    -9.086602    6.519176    0.518435    -8.602307    18.588305    2.961470    2.085166    -19.251266    7.905363    -5.536020    3.448359    -7.096934    -0.115989    -7.649952    -6.937003    -2.357316    -13.096469    0.179474    9.923025    15.331118    -0.661636    -1.248195    -0.729984    -2.024093    0.036374    1.802472    -1.934759    5.663480    4.064913    4.187113    3.588201    -4.278665    4.620276    -3.541507    -0.532382    -7.646435    14.982361    0.000000    0.000000    0.000000    -2.173664    -0.645812    2.950161    3.680040    8.045401    2.327668    0.173208    -5.838413    -8.007623    0.000000    0.000000    0.000000    
-160.135986    89.205788    40.719513    -1.369156    -1.378132    87.943687    2.298866    -3.240710    -0.982970    -2.032348    -3.330183    -1.107073    -1.696801    18.533409    -9.068637    6.487278    0.527591    -8.587890    18.606085    2.974221    2.090224    -19.269049    7.881321    -5.533617    3.471561    -7.166600    -0.116596    -7.692475    -7.004099    -2.382692    -13.076159    0.167072    9.937185    15.340030    -0.628187    -1.237128    -0.775777    -2.093297    0.084909    1.812024    -2.002521    5.703770    4.040740    4.167939    3.598311    -4.242632    4.642621    -3.530965    -0.543992    -7.648374    14.958233    0.000000    0.000000    0.000000    -2.121162    -0.677345    2.778754    3.551976    8.103109    2.448050    0.233094    -5.848224    -7.952913    0.000000    0.000000    0.000000    
-160.134476    89.205322    40.716640    -1.371354    -1.379744    87.935120    2.280314    -3.242574    -0.987929    -1.973286    -3.328207    -1.109788    -1.707395    18.523453    -9.053364    6.438922    0.531840    -8.578889    18.569820    2.968020    2.086052    -19.276823    7.876202    -5.529077    3.485024    -7.225827    -0.116703    -7.689741    -7.063192    -2.385653    -13.111589    0.145351    9.931575    15.349911    -0.570668    -1.202535    -0.829161    -2.191131    0.095608    1.836576    -2.098460    5.739416    4.041349    4.173617    3.606583    -4.248061    4.632492    -3.541152    -0.576788    -7.665390    14.994285    0.000000    0.000000    0.000000    -2.258126    -0.643453    3.160189    3.841438    8.035480    2.424240    0.095061    -5.851533    -8.318017    0.000000    0.000000    0.000000    
-160.135788    89.206436    40.714626    -1.381834    -1.384251    87.928070    2.288176    -3.245957    -0.987315    -1.970500    -3.335073    -1.109537    -1.718646    18.477245    -9.043209    6.441490    0.599319    -8.571176    18.577215    2.972743    2.071749    -19.290670    7.877238    -5.534253    3.491676    -7.253755    -0.115909    -7.744482    -7.089036    -2.400135    -13.099175    0.155188    9.919876    15.336464    -0.573540    -1.168505    -0.835176    -2.171978    0.104117    1.761411    -2.082386    5.777792    4.058066    4.194822    3.591707    -4.274307    4.581052    -3.555110    -0.550070    -7.639544    15.019444    0.000000    0.000000    0.000000    -2.251630    -0.649811    3.164540    3.838799    8.020103    2.383075    0.109750    -5.835726    -8.271266    0.000000    0.000000    0.000000    
